<svg xmlns="http://www.w3.org/2000/svg" version="1.1" xmlns:xlink="http://www.w3.org/1999/xlink" xmlns:svgjs="http://svgjs.dev/svgjs" width="64" height="58"><svg width="64" height="58" viewBox="0 0 64 58" fill="none" xmlns="http://www.w3.org/2000/svg">
<path d="M63.936 20.256C63.8933 20.768 63.7227 21.152 63.424 21.408C63.168 21.664 62.9973 22.048 62.912 22.56C61.376 22.9867 59.6693 23.2427 57.792 23.328C55.9573 23.4133 54.4213 23.0507 53.184 22.24C52.416 21.728 51.8613 21.024 51.52 20.128C51.1787 19.1893 51.2213 17.9947 51.648 16.544C51.4773 16.3733 51.2853 16.288 51.072 16.288C50.9013 16.288 50.7093 16.3307 50.496 16.416C50.3253 16.4587 50.1547 16.5013 49.984 16.544C49.856 16.5867 49.7067 16.5867 49.536 16.544C49.4933 17.4827 49.216 18.5707 48.704 19.808C48.192 21.0027 47.5093 21.9627 46.656 22.688C46.1013 23.1573 45.4827 23.4773 44.8 23.648C44.1173 23.776 43.4133 23.6267 42.688 23.2C42.8587 22.3893 43.1573 21.7067 43.584 21.152C44.0107 20.5973 44.4373 20.0427 44.864 19.488C45.2907 18.9333 45.5893 18.2507 45.76 17.44C45.504 16.928 45.0347 16.48 44.352 16.096C43.6693 15.6693 43.008 15.3493 42.368 15.136C41.7707 14.9227 41.472 14.816 41.472 14.816C42.6667 14.8587 43.8827 14.7733 45.12 14.56C46.4 14.3467 47.7227 14.0907 49.088 13.792C49.4293 13.152 49.5573 12.32 49.472 11.296C49.1733 11.0827 48.7467 10.976 48.192 10.976C47.6373 10.976 47.2107 10.8693 46.912 10.656C46.6133 11.168 46.272 11.6587 45.888 12.128C45.504 12.5547 45.0773 12.9387 44.608 13.28C44.1813 13.3653 43.7973 13.3653 43.456 13.28C43.1573 13.1947 42.8587 13.088 42.56 12.96C42.432 12.9173 42.3467 12.896 42.304 12.896C42.7733 12.0427 43.1147 11.2533 43.328 10.528C42.3893 10.528 41.5573 10.6347 40.832 10.848C40.1493 11.0613 39.4453 11.2747 38.72 11.488C38.6773 12.0427 38.5493 12.5333 38.336 12.96C38.1227 13.3867 37.9093 13.8133 37.696 14.24C38.9333 14.24 40 14.4107 40.896 14.752C41.8347 15.0933 42.5387 15.6693 43.008 16.48C42.4107 16.6507 41.7493 16.7787 41.024 16.864C40.2987 16.9067 39.616 17.0133 38.976 17.184C39.0187 17.312 39.0613 17.44 39.104 17.568C39.1467 17.696 39.1893 17.824 39.232 17.952C39.3173 18.2933 39.4027 18.6347 39.488 18.976C39.5733 19.2747 39.552 19.616 39.424 20C39.8933 19.9147 40.256 19.68 40.512 19.296C40.768 18.912 41.024 18.528 41.28 18.144C41.536 17.76 41.8987 17.5467 42.368 17.504C42.7947 19.168 42.624 20.6827 41.856 22.048C41.088 23.4133 39.9787 24.3307 38.528 24.8H40.128C41.792 24.7147 43.4347 24.5227 45.056 24.224C46.72 23.9253 48.2987 23.776 49.792 23.776C51.1573 23.776 52.4373 23.9893 53.632 24.416C54.8267 24.8427 55.9147 25.632 56.896 26.784C56.8533 27.0827 56.6613 27.2747 56.32 27.36C55.9787 27.4453 55.68 27.552 55.424 27.68C55.1253 27.808 54.912 28.0427 54.784 28.384C54.6987 28.7253 54.4427 28.9173 54.016 28.96C53.888 29.984 53.824 31.0933 53.824 32.288C53.824 33.4827 53.824 34.7413 53.824 36.064C53.9093 38.0267 53.9307 40.0533 53.888 42.144C53.8453 44.192 53.568 46.1333 53.056 47.968C52.5867 47.5413 52.096 47.3067 51.584 47.264C51.1147 47.1787 50.6027 47.072 50.048 46.944C49.536 46.7733 48.9813 46.368 48.384 45.728C47.5307 45.8987 46.3787 46.0693 44.928 46.24C43.4773 46.368 42.0907 46.4533 40.768 46.496C40.5547 46.5813 40.4267 46.688 40.384 46.816C40.384 46.9013 40.4053 47.008 40.448 47.136C40.4907 47.392 40.4693 47.6053 40.384 47.776C40.1707 47.7333 40.0213 47.7333 39.936 47.776C39.8507 47.8187 39.7653 47.8827 39.68 47.968C39.5093 48.1387 39.3173 48.224 39.104 48.224C38.7627 49.12 38.144 50.144 37.248 51.296C36.352 52.4053 35.328 53.408 34.176 54.304C33.024 55.2427 31.8933 55.8613 30.784 56.16C30.3147 56.288 29.76 56.288 29.12 56.16C28.48 56.0747 28.0533 55.8187 27.84 55.392C28.3947 55.392 28.608 55.1787 28.48 54.752C30.1013 54.1973 31.3813 53.3227 32.32 52.128C33.3013 50.9333 34.24 49.7173 35.136 48.48C34.4107 48.0107 33.6427 47.5627 32.832 47.136C32.064 46.6667 31.3387 46.304 30.656 46.048C31.2107 45.7067 31.808 45.3867 32.448 45.088C33.1307 44.7467 33.792 44.5547 34.432 44.512C34.3467 44.2133 34.2187 43.936 34.048 43.68C33.92 43.424 33.792 43.168 33.664 42.912C33.3227 42.3573 33.0453 41.824 32.832 41.312C32.6187 40.7573 32.6187 40.1387 32.832 39.456L31.808 39.072C31.7653 38.9013 31.9573 38.816 32.384 38.816C32.5973 38.8587 32.7467 38.8587 32.832 38.816C33.3013 37.792 33.536 36.6827 33.536 35.488C33.536 34.2507 32.9813 33.3973 31.872 32.928C32.0427 32.8 32.256 32.736 32.512 32.736C32.768 32.6933 33.024 32.672 33.28 32.672C33.536 32.672 33.7067 32.672 33.792 32.672C33.792 32.0747 33.7707 31.4773 33.728 30.88C33.728 30.2827 33.664 29.7493 33.536 29.28L29.248 28.32C30.2293 28.2347 30.912 28 31.296 27.616C31.7227 27.1893 31.9573 26.6987 32 26.144C32.7253 26.144 33.536 26.0587 34.432 25.888C35.3707 25.6747 36.1813 25.4827 36.864 25.312C37.5467 25.0987 37.888 24.992 37.888 24.992C37.2053 24.6507 36.736 24.2453 36.48 23.776C36.2667 23.3067 36.16 22.7733 36.16 22.176C36.16 21.8773 36.16 21.5787 36.16 21.28C36.2027 20.9387 36.2453 20.6187 36.288 20.32C36.3733 19.8933 36.416 19.4667 36.416 19.04C36.4587 18.5707 36.48 18.1013 36.48 17.632C36.224 17.6747 35.968 17.7173 35.712 17.76C35.456 17.8027 35.2213 17.8453 35.008 17.888C35.008 18.0587 35.0507 18.208 35.136 18.336C35.264 18.5067 35.2853 18.6987 35.2 18.912C34.4747 19.3387 33.856 19.9787 33.344 20.832C32.832 21.6853 32.3413 22.5813 31.872 23.52C31.4453 24.416 30.9333 25.184 30.336 25.824C29.8667 26.3787 29.2907 26.7627 28.608 26.976C27.968 27.1893 27.2 27.0827 26.304 26.656C26.3893 25.7173 26.7093 24.8853 27.264 24.16C27.8613 23.392 28.48 22.624 29.12 21.856C29.76 21.088 30.1867 20.2133 30.4 19.232C29.6747 18.8907 28.9067 18.5707 28.096 18.272C27.2853 17.9307 26.688 17.4187 26.304 16.736C27.1573 16.6933 28.1387 16.5867 29.248 16.416C30.3573 16.2027 31.424 15.9893 32.448 15.776C33.5147 15.52 34.4107 15.3067 35.136 15.136C34.88 14.8373 34.7947 14.4533 34.88 13.984C34.9653 13.5147 35.072 13.088 35.2 12.704C35.2427 12.448 35.2853 12.256 35.328 12.128C34.9867 12.0853 34.6667 12.0853 34.368 12.128C34.112 12.1707 33.8773 12.2347 33.664 12.32C33.3653 12.3627 33.088 12.4053 32.832 12.448C32.576 12.448 32.2773 12.3627 31.936 12.192C31.5093 13.1733 30.912 14.0267 30.144 14.752C29.4187 15.4347 28.2027 15.6693 26.496 15.456C26.7093 14.56 27.0507 13.472 27.52 12.192C28.032 10.912 28.3093 9.67467 28.352 8.48C28.352 7.75467 28.224 7.09333 27.968 6.496C27.712 5.856 27.2427 5.32266 26.56 4.896C27.5413 4.59733 28.544 4.66133 29.568 5.088C30.6347 5.51466 31.6373 5.984 32.576 6.496C32.704 6.53866 32.832 6.60266 32.96 6.688C33.088 6.73067 33.216 6.79467 33.344 6.88C33.344 7.136 33.3013 7.392 33.216 7.648C33.1733 7.86133 33.088 8.07467 32.96 8.288C32.8747 8.45867 32.8107 8.62933 32.768 8.8C32.7253 8.928 32.704 9.07733 32.704 9.248C32.96 9.46133 33.2587 9.54666 33.6 9.504C33.9413 9.41867 34.2827 9.312 34.624 9.184C34.752 9.14133 34.88 9.09867 35.008 9.056C35.1787 9.01333 35.328 8.992 35.456 8.992C35.6693 7.15733 35.52 5.664 35.008 4.512C34.5387 3.36 33.9413 2.336 33.216 1.44C33.216 1.44 33.4933 1.48266 34.048 1.568C34.6027 1.65333 35.2427 1.80267 35.968 2.016C36.736 2.18667 37.44 2.44267 38.08 2.784C38.7627 3.12533 39.2107 3.552 39.424 4.064C39.168 4.27733 38.9973 4.61867 38.912 5.088C38.8693 5.51466 38.848 5.96266 38.848 6.432C38.848 6.73066 38.8267 7.02933 38.784 7.328C38.784 7.584 38.7413 7.84 38.656 8.096C39.5093 8.30933 40.384 8.416 41.28 8.416C42.2187 8.416 43.0293 8.69333 43.712 9.248C44.3093 8.48 44.544 7.584 44.416 6.56C44.288 5.536 43.9467 4.68266 43.392 4C43.392 4 43.6267 4.04266 44.096 4.128C44.5653 4.21333 45.12 4.34133 45.76 4.512C46.4 4.68266 46.976 4.93866 47.488 5.28C48 5.57866 48.2773 5.96266 48.32 6.432C48.3627 6.64533 48.3413 6.85867 48.256 7.072C48.1707 7.24267 48.0853 7.392 48 7.52C47.7867 7.904 47.7653 8.18133 47.936 8.352C48.0213 8.52266 48.2773 8.544 48.704 8.416C48.8747 8.33066 49.0667 8.288 49.28 8.288C49.4933 8.24533 49.6853 8.24533 49.856 8.288C50.2827 6.79466 50.2613 5.36533 49.792 4C49.3227 2.592 48.6613 1.504 47.808 0.735996C47.808 0.735996 48.0213 0.799997 48.448 0.927998C48.8747 1.056 49.3653 1.20533 49.92 1.376C50.4747 1.54666 50.9227 1.71733 51.264 1.888C52.1173 2.31466 52.7787 2.93333 53.248 3.744C53.7173 4.512 53.76 5.664 53.376 7.2C53.888 7.24266 54.5067 7.34933 55.232 7.52C55.9573 7.648 56.64 7.88266 57.28 8.224C57.92 8.52266 58.3253 8.992 58.496 9.632C57.6853 9.80266 56.8107 9.97333 55.872 10.144C54.976 10.3147 54.0373 10.464 53.056 10.592C52.8853 10.9333 52.7573 11.3813 52.672 11.936C52.6293 12.448 52.5653 12.8533 52.48 13.152C53.76 12.8107 54.8907 12.8747 55.872 13.344C56.8533 13.7707 57.6853 14.304 58.368 14.944C58.112 15.2 57.7707 15.3493 57.344 15.392C56.9173 15.4347 56.448 15.4773 55.936 15.52C55.5093 15.52 55.104 15.5413 54.72 15.584C54.336 15.584 54.016 15.6693 53.76 15.84C53.8027 16.096 53.8453 16.352 53.888 16.608C53.9733 16.864 54.08 17.0987 54.208 17.312C54.336 17.696 54.4427 18.08 54.528 18.464C54.6133 18.848 54.592 19.232 54.464 19.616C55.4453 19.9147 56.384 19.9147 57.28 19.616C58.2187 19.2747 58.9653 18.4853 59.52 17.248C60.0747 17.888 60.5867 18.336 61.056 18.592C61.568 18.8053 62.0587 18.9973 62.528 19.168C62.9973 19.3387 63.4667 19.7013 63.936 20.256ZM28.736 34.272C28.48 34.7413 28.1813 35.168 27.84 35.552C27.4987 35.8933 27.0293 36.1707 26.432 36.384C26.176 37.1947 25.984 38.0907 25.856 39.072C25.7707 40.0107 25.7067 40.992 25.664 42.016C25.5787 43.5947 25.408 45.1307 25.152 46.624C24.896 48.0747 24.2773 49.184 23.296 49.952C23.2107 49.8667 23.1467 49.7173 23.104 49.504C23.104 49.248 23.104 49.12 23.104 49.12C22.72 49.5467 21.952 49.8027 20.8 49.888C19.648 49.9307 18.3893 49.9947 17.024 50.08C15.6587 50.1227 14.4427 50.3573 13.376 50.784C13.7173 51.7653 13.8667 52.64 13.824 53.408C13.7813 54.2187 13.312 54.816 12.416 55.2C11.52 54.816 10.816 54.2187 10.304 53.408C9.792 52.5973 9.36533 51.7013 9.024 50.72C8.72533 49.696 8.34133 48.7573 7.872 47.904C8 47.904 8.14933 47.9467 8.32 48.032C8.448 48.0747 8.59733 48.1173 8.768 48.16C8.93867 48.16 9.13067 48.1387 9.344 48.096C9.344 46.6453 9.28 45.28 9.152 44C9.024 42.72 8.896 41.4187 8.768 40.096C8.128 39.456 7.488 38.816 6.848 38.176C6.208 37.536 5.568 36.9173 4.928 36.32C4.97067 36.2773 5.056 36.2133 5.184 36.128C5.26933 36 5.35467 35.8933 5.44 35.808C5.52533 35.68 5.54667 35.5093 5.504 35.296C6.912 35.3387 8.36267 35.2107 9.856 34.912C11.3493 34.5707 12.8427 34.1867 14.336 33.76C15.7867 33.376 17.216 33.0347 18.624 32.736C20.032 32.4373 21.3547 32.3307 22.592 32.416C22.6347 32.416 22.6987 32.416 22.784 32.416C23.04 32.4587 23.3387 32.5013 23.68 32.544C24.064 32.544 24.4053 32.4373 24.704 32.224C25.088 32.6507 25.5147 32.928 25.984 33.056C26.4533 33.184 26.9227 33.312 27.392 33.44C27.904 33.568 28.352 33.8453 28.736 34.272ZM27.264 11.04C27.3067 11.424 27.2213 11.7227 27.008 11.936C26.7947 12.1493 26.56 12.3627 26.304 12.576C26.176 12.6613 26.048 12.7467 25.92 12.832C25.792 12.9173 25.6853 13.024 25.6 13.152C24.0213 13.3227 22.3147 13.472 20.48 13.6C18.6453 13.728 16.7893 13.8987 14.912 14.112C13.0773 14.2827 11.3707 14.56 9.792 14.944C9.024 15.1147 8.21333 15.4987 7.36 16.096C6.54933 16.6507 5.824 16.928 5.184 16.928C4.75733 16.928 4.37333 16.7573 4.032 16.416C3.73333 16.0747 3.47733 15.8187 3.264 15.648C2.66667 15.136 2.06933 14.6027 1.472 14.048C0.874667 13.4507 0.405333 12.7467 0.064 11.936C1.856 12.1493 3.84 12.1493 6.016 11.936C8.192 11.68 10.4107 11.3813 12.672 11.04C13.5253 10.912 14.3787 10.784 15.232 10.656C16.0853 10.528 16.9173 10.4213 17.728 10.336C18.1547 9.86666 18.368 9.12 18.368 8.096C18.4107 7.02933 18.3253 6.15466 18.112 5.472C17.0453 5.00266 15.9147 4.46933 14.72 3.872C13.5253 3.27466 12.736 2.57066 12.352 1.76C12.5227 1.76 12.7573 1.73867 13.056 1.696C14.3787 1.48267 15.6373 1.35467 16.832 1.312C18.0693 1.22666 19.1573 1.39733 20.096 1.824C21.0347 2.208 21.76 2.976 22.272 4.128C22.0587 4.93866 21.824 5.87733 21.568 6.944C21.312 8.01066 20.9493 8.992 20.48 9.888C21.0773 9.80266 21.8027 9.78133 22.656 9.824C23.552 9.86666 24.4267 9.97333 25.28 10.144C26.1333 10.3147 26.7947 10.6133 27.264 11.04ZM48.064 28C47.936 27.9573 47.8507 27.872 47.808 27.744C47.808 27.616 47.808 27.488 47.808 27.36C47.808 27.0613 47.744 26.912 47.616 26.912C45.7813 26.8267 44.1813 26.8693 42.816 27.04C41.4507 27.2107 39.9573 27.5733 38.336 28.128C38.2507 29.0667 38.0373 29.7707 37.696 30.24C37.3973 30.6667 37.2053 31.2427 37.12 31.968C37.8453 31.8827 38.6347 31.776 39.488 31.648C40.3413 31.4773 41.1733 31.392 41.984 31.392C42.88 31.392 43.712 31.5413 44.48 31.84C45.248 32.096 45.8453 32.6507 46.272 33.504C44.736 33.8027 43.0933 34.144 41.344 34.528C39.6373 34.912 38.1867 35.4027 36.992 36L37.056 37.92C37.696 37.7493 38.336 37.6213 38.976 37.536C39.6587 37.408 40.3413 37.344 41.024 37.344C42.1333 37.344 43.136 37.5147 44.032 37.856C44.9707 38.1973 45.6107 38.8587 45.952 39.84C44.6293 39.84 43.1573 40.032 41.536 40.416C39.9573 40.8 38.4853 41.1627 37.12 41.504C37.1627 41.9733 37.248 42.4 37.376 42.784C37.5467 43.1253 37.6747 43.5307 37.76 44C38.4853 43.9573 39.1893 43.8933 39.872 43.808C40.5973 43.7227 41.3013 43.6373 41.984 43.552C43.0507 43.3813 44.0747 43.2533 45.056 43.168C46.0373 43.0827 46.912 43.168 47.68 43.424C47.9787 42.0587 48.1493 40.48 48.192 38.688C48.2773 36.896 48.2987 35.104 48.256 33.312C48.2133 31.52 48.1493 29.92 48.064 28.512C48.064 28.2987 48.064 28.128 48.064 28ZM20.736 35.872C19.7547 36.0427 18.7307 36.192 17.664 36.32C16.64 36.448 15.68 36.64 14.784 36.896C13.9307 37.152 13.248 37.6213 12.736 38.304C12.7787 38.6027 12.8 38.9227 12.8 39.264C12.8427 39.5627 12.8853 39.8827 12.928 40.224C13.0133 41.3333 13.0773 42.5067 13.12 43.744C13.2053 44.9387 13.1413 46.2187 12.928 47.584C13.2267 47.6267 13.6107 47.6053 14.08 47.52C14.592 47.4347 15.1253 47.3493 15.68 47.264C16.448 47.136 17.216 47.0293 17.984 46.944C18.7947 46.816 19.4987 46.7947 20.096 46.88C20.48 45.3013 20.6933 43.5733 20.736 41.696C20.8213 39.776 20.8213 37.8347 20.736 35.872ZM59.328 56.544C59.2853 56.9707 59.008 57.1627 58.496 57.12C58.0267 57.12 57.5147 57.0773 56.96 56.992C56.6613 56.9067 56.3627 56.8427 56.064 56.8C55.7653 56.7573 55.5093 56.7573 55.296 56.8C53.8453 54.9227 52.3093 53.1733 50.688 51.552C49.1093 49.9307 47.5733 48.224 46.08 46.432C46.5493 46.3467 47.2747 46.496 48.256 46.88C49.2373 47.264 50.2613 47.6907 51.328 48.16C52.1387 48.5013 52.928 48.8427 53.696 49.184C54.5067 49.4827 55.2107 49.696 55.808 49.824C56.4053 50.2933 56.9813 50.9333 57.536 51.744C58.0907 52.512 58.5387 53.3227 58.88 54.176C59.264 55.072 59.4133 55.8613 59.328 56.544ZM25.216 27.552C25.0027 27.8507 24.8747 28.2347 24.832 28.704C24.832 29.1307 24.5547 29.3867 24 29.472C22.592 29.7707 21.056 30.0693 19.392 30.368C17.728 30.6667 16.0853 30.8373 14.464 30.88C13.2267 30.9227 12.0107 30.816 10.816 30.56C9.62133 30.2613 8.53333 29.7707 7.552 29.088C8.40533 29.0453 9.32267 28.9173 10.304 28.704C11.2853 28.4907 12.288 28.256 13.312 28C14.6347 27.7013 15.9573 27.424 17.28 27.168C18.6453 26.8693 19.968 26.72 21.248 26.72C22.7413 26.72 24.064 26.9973 25.216 27.552ZM23.808 19.296C24.064 20.192 23.7653 20.9173 22.912 21.472C22.0587 21.984 20.928 22.368 19.52 22.624C18.1547 22.88 16.7893 23.0933 15.424 23.264C13.888 23.4347 12.416 23.2853 11.008 22.816C9.64267 22.304 8.64 21.792 8 21.28C8.128 21.152 8.256 21.088 8.384 21.088C8.55467 21.088 8.704 21.088 8.832 21.088C9.04533 21.088 9.216 21.0667 9.344 21.024C9.51467 20.9813 9.64267 20.8533 9.728 20.64C10.8373 20.5973 11.8613 20.4693 12.8 20.256C13.7813 20.0427 14.72 19.808 15.616 19.552C16.9813 19.168 18.3253 18.8907 19.648 18.72C20.9707 18.5493 22.3573 18.7413 23.808 19.296Z" fill="black"></path>
</svg><style>@media (prefers-color-scheme: light) { :root { filter: none; } }
@media (prefers-color-scheme: dark) { :root { filter: invert(100%); } }
</style></svg>